<svg xmlns="http://www.w3.org/2000/svg"  viewBox="0 0 100 100" width="70px" height="70px"><circle cx="77" cy="13" r="1" fill="#f1bc19"/><circle cx="50" cy="50" r="37" fill="#e6edb7"/><circle cx="83" cy="15" r="4" fill="#f1bc19"/><circle cx="87" cy="24" r="2" fill="#88ae45"/><circle cx="81" cy="76" r="2" fill="#fbcd59"/><circle cx="15" cy="63" r="4" fill="#fbcd59"/><circle cx="25" cy="87" r="2" fill="#88ae45"/><circle cx="18.5" cy="51.5" r="2.5" fill="#fff"/><circle cx="79.5" cy="33.5" r="1.5" fill="#fff"/><g><path fill="#355ca8" d="M74,50c0,13.26-10.74,24-24,24c-8.544,0-16.032-4.452-20.268-11.172 c-0.348-0.528-0.672-1.068-0.96-1.632C26.996,57.86,26,54.044,26,50c0-13.26,10.74-24,24-24c8.472,0,15.912,4.38,20.172,11.016 c0.42,0.624,0.792,1.284,1.14,1.956C73.028,42.272,74,46.028,74,50z"/><path fill="#fcc938" d="M71.312,38.972c-0.348-0.672-0.72-1.332-1.14-1.956C66.8,38.36,63.56,39.944,60.356,41.6 c-1.069,0.544-2.124,1.112-3.173,1.693L41.3,34.7l-1.8,1.2L50,44l1.476,2.583c-0.856,0.507-1.712,1.015-2.568,1.521 c-3.768,2.256-7.5,4.584-11.184,6.972c-3.024,1.992-6.024,3.996-8.952,6.12c0.288,0.564,0.612,1.104,0.96,1.632 c3.3-1.488,6.528-3.084,9.744-4.704c3.912-2.016,7.788-4.092,11.616-6.228c0.861-0.489,1.723-0.975,2.584-1.463L54.8,52.4l2.1,13.5 l1.8-0.6l0.794-18.251c0.992-0.601,1.977-1.215,2.95-1.849C65.48,43.244,68.468,41.228,71.312,38.972z"/><path fill="#472b29" d="M56.9,66.15c-0.045,0-0.091-0.012-0.13-0.037c-0.063-0.038-0.105-0.102-0.117-0.175L54.56,52.484 l-0.978-1.71l-2.367,1.34c-3.76,2.098-7.67,4.195-11.625,6.233c-3.053,1.538-6.346,3.172-9.755,4.71 c-0.114,0.05-0.244,0.012-0.312-0.09c-0.385-0.583-0.703-1.125-0.974-1.657c-0.056-0.109-0.023-0.243,0.076-0.315 c2.777-2.015,5.591-3.906,8.96-6.126c3.714-2.407,7.479-4.754,11.194-6.978l2.357-1.396l-1.33-2.326l-10.46-8.07 c-0.064-0.049-0.101-0.126-0.098-0.207s0.044-0.155,0.111-0.199l1.8-1.2c0.077-0.051,0.176-0.057,0.258-0.012l15.764,8.527 c1.155-0.637,2.13-1.157,3.061-1.63c2.645-1.368,6.153-3.126,9.836-4.594c0.11-0.042,0.235-0.005,0.3,0.093 c0.382,0.566,0.749,1.196,1.155,1.98c0.056,0.106,0.027,0.237-0.066,0.311c-3.058,2.425-6.209,4.516-8.888,6.242 c-0.864,0.562-1.796,1.147-2.843,1.783L58.95,65.311c-0.005,0.104-0.072,0.194-0.171,0.227l-1.8,0.6 C56.954,66.146,56.927,66.15,56.9,66.15z M53.676,50.183c0.087,0,0.171,0.045,0.217,0.126l1.124,1.967 c0.016,0.026,0.025,0.056,0.03,0.085l2.055,13.208l1.356-0.452l0.785-18.079c0.004-0.083,0.049-0.16,0.12-0.203 c1.09-0.66,2.053-1.264,2.944-1.844c2.623-1.69,5.697-3.729,8.688-6.086c-0.321-0.608-0.617-1.119-0.919-1.581 c-3.594,1.444-7.015,3.159-9.604,4.499c-0.959,0.487-1.965,1.024-3.167,1.689c-0.074,0.042-0.164,0.042-0.24,0.001l-15.751-8.521 l-1.385,0.923l10.224,7.888c0.026,0.02,0.048,0.045,0.064,0.074l1.477,2.583c0.068,0.119,0.028,0.27-0.09,0.339l-2.568,1.521 c-3.708,2.219-7.468,4.563-11.176,6.967c-3.292,2.168-6.052,4.023-8.766,5.986c0.211,0.4,0.452,0.809,0.73,1.24 c3.332-1.508,6.552-3.106,9.539-4.611c3.947-2.035,7.854-4.129,11.606-6.223l2.583-1.462 C53.592,50.193,53.634,50.183,53.676,50.183z"/></g><path fill="#472b29" d="M50,26.4c13.013,0,23.6,10.587,23.6,23.6S63.013,73.6,50,73.6S26.4,63.013,26.4,50	S36.987,26.4,50,26.4 M50,25c-13.807,0-25,11.193-25,25s11.193,25,25,25s25-11.193,25-25S63.807,25,50,25L50,25z"/></svg>